<svg xmlns="http://www.w3.org/2000/svg" width="61.133" height="49.657" viewBox="0 0 61.133 49.657">
  <g id="museum" transform="translate(0 0)">
    <g id="Group_6" data-name="Group 6" transform="translate(0 0)">
      <g id="Group_5" data-name="Group 5">
        <path id="Path_3" data-name="Path 3" d="M59.885,57.289c-3.017,0-5.741.1-8.237.293V49.3A1.248,1.248,0,0,0,50.4,48.057H10.732A1.248,1.248,0,0,0,9.484,49.3V66.139c-2.383.092-5.089.135-8.237.135A1.248,1.248,0,0,0,0,67.522V96.466a1.248,1.248,0,0,0,1.248,1.248H59.885a1.248,1.248,0,0,0,1.248-1.248V58.537A1.248,1.248,0,0,0,59.885,57.289ZM11.98,61.907H25.373a1.248,1.248,0,0,0,0-2.5H11.98V56.171H39.507a1.248,1.248,0,0,0,0-2.5H11.98V50.552H49.153v7.256A79.492,79.492,0,0,0,30.16,62.286a58.4,58.4,0,0,1-18.18,3.732V61.907Zm.531,33.311h0l2.434-2.434a1.248,1.248,0,1,0-1.764-1.764l-4.2,4.2H7.86v-8H23.434l-8,8h-2.92Zm12.317,0H18.959l5.868-5.868Zm16.129,0h0l2.434-2.434a1.248,1.248,0,0,0-1.764-1.764l-4.2,4.2H36.306v-8H51.88l-8,8h-2.92Zm12.317,0H47.4l5.868-5.868Zm5.365,0h-2.87V85.967a1.248,1.248,0,0,0-1.248-1.248H35.058a1.248,1.248,0,0,0-1.248,1.248v9.251H27.323V85.967a1.248,1.248,0,0,0-1.248-1.248H6.612a1.248,1.248,0,0,0-1.248,1.248v9.251H2.5V79.144H58.638Zm0-29.693H40.815a1.248,1.248,0,1,0,0,2.5H58.638v2.5H40.815a1.248,1.248,0,1,0,0,2.5H58.638v3.629H2.5V68.767c15.249-.058,20.031-1.207,28.478-4.122A76.892,76.892,0,0,1,58.638,59.79v5.735Z" transform="translate(0 -48.057)" fill="#204361"/>
      </g>
    </g>
  </g>
</svg>
